<!-- icon666.com - MILLIONS OF FREE VECTOR ICONS --><svg id="svg28031" viewBox="0 0 16.933333 16.933334" xmlns="http://www.w3.org/2000/svg" xmlns:svg="http://www.w3.org/2000/svg"><g id="layer1" transform="translate(0 -280.067)"><path id="path40973" d="m3.1636285 280.84799c-.2645304.008-.4969192.1476-.6914303.3421l-.3245273.32401 3.5170983 3.58117.5105612-.51056c.3076998-.30769.3076919-.81575 0-1.12345l-2.271694-2.27117c-.2200302-.22004-.4754881-.35023-.7400079-.3421zm-1.3911289 1.04024-.3725863.37208c-.60967143.60966-.60564976 1.40738-.60564976 1.7756 0 1.52362.60912106 4.15774 4.31033246 7.85895 3.7012192 3.70122 6.33584 4.31085 7.859469 4.31085.36825 0 1.165953.004 1.775601-.60565l.336931-.33693-3.517099-3.58118-.368969.36949c-.21866.21865-.380016.24479-.536919.22634-.15689-.0184-.319088-.10919-.437698-.20102-.6467791-.50074-1.6939576-1.21749-2.88458-2.40812-1.1906277-1.19063-1.9073813-2.23832-2.4081211-2.8851-.0918-.11861-.1825705-.27873-.2010199-.43563-.018494-.1569.0099-.32032.2284095-.53899l.3395134-.33951zm11.2039664 8.70542c-.203808 0-.40736.0771-.561205.23099l-.481623.48214 3.517614 3.58169.358635-.35863c.194498-.19449.333449-.42897.341579-.6935.008-.26452-.121549-.51997-.341579-.74001l-2.271697-2.27169c-.15385-.15385-.357915-.23099-.561724-.23099z" font-variant-ligatures="normal" font-variant-position="normal" font-variant-caps="normal" font-variant-numeric="normal" font-variant-alternates="normal" font-feature-settings="normal" text-indent="0" text-align="start" text-decoration-line="none" text-decoration-style="solid" text-decoration-color="rgb(0,0,0)" text-transform="none" text-orientation="mixed" white-space="normal" shape-padding="0" isolation="auto" mix-blend-mode="normal" solid-color="rgb(0,0,0)" solid-opacity="1" vector-effect="none" fill="#000000" style="fill: rgb(211, 161, 98);"></path></g></svg>