<!-- icon666.com - MILLIONS OF FREE VECTOR ICONS --><svg clip-rule="evenodd" fill-rule="evenodd" image-rendering="optimizeQuality" shape-rendering="geometricPrecision" text-rendering="geometricPrecision" viewBox="0 0 512 512" xmlns="http://www.w3.org/2000/svg" xmlns:xlink="http://www.w3.org/1999/xlink" xmlns:xodm="http://www.corel.com/coreldraw/odm/2003"><linearGradient id="id0" gradientUnits="userSpaceOnUse" x1="67.83" x2="474.19" y1="82.42" y2="389.98"><stop offset="0" stop-color="#28aae0"></stop><stop offset="1" stop-color="#23b7ec"></stop></linearGradient><g id="Layer_x0020_1"><g id="_1639533987648"><path d="m256 0c141.39 0 256 114.61 256 256s-114.61 256-256 256-256-114.61-256-256 114.61-256 256-256z" fill="url(#id0)"></path><g fill-rule="nonzero"><path d="m371.22 163.51-36.45 183.75s-5.1 12.74-19.11 6.63l-84.1-64.48-30.59-14.78-51.48-17.33s-7.9-2.81-8.66-8.92c-.77-6.12 8.92-9.43 8.92-9.43l204.65-80.28s16.82-7.39 16.82 4.84z" fill="#fefefe"></path><path d="m264.4 318.56-35.81 32.65s-2.79 2.12-5.86.79c-4.51-.65-17.74-47.81-25.95-75.95l6.87-4.37z" fill="#b5d2e5"></path><path d="m222.73 352c-4.88-.46-23.44-67.73-25.95-75.95l133.03-84.49c6.92-4.2 10.62-.89 4.66 4.67-4.11 3.84-104.5 94.08-104.5 94.08z" fill="#d3e7f2"></path></g></g></g></svg>